<svg id="Layer_1" data-name="Layer 1" xmlns="http://www.w3.org/2000/svg" width="99.59" height="90.95" viewBox="0 0 99.59 90.95"><defs><style>.cls-1{fill:#6102bc;}.cls-2{stroke:#6102bc;stroke-miterlimit:10;stroke-width:0.75px;}</style></defs><path class="cls-1" d="M11.75,54.47c-6.31-4.21-10-12-8.44-19.54,1.52-7.38,7.58-12.78,14.83-14.31a20.58,20.58,0,0,1,12.78,1.47,1.52,1.52,0,0,0,2.26-1.29,18.93,18.93,0,0,1,11-16.51C51.33,1.2,58.9,4.05,63.89,9.61a22.8,22.8,0,0,1,5.51,11,1.5,1.5,0,0,0,1.84,1,24.87,24.87,0,0,1,6.63-1,21,21,0,0,1,5.51.92,19.6,19.6,0,0,1,9.09,5.91,17.82,17.82,0,0,1,2.2,19.39,20.4,20.4,0,0,1-8.49,8.81c-1.69.94-.17,3.53,1.52,2.59A22.72,22.72,0,0,0,99.58,38.11c-.26-8.54-5.91-15.71-13.72-18.82a23.48,23.48,0,0,0-7.07-1.58,26.54,26.54,0,0,0-8.35,1.06l1.85,1.05A25.42,25.42,0,0,0,56.74,1.09c-8.07-3-17,.37-22.05,7.05A22.25,22.25,0,0,0,30.18,20.8l2.26-1.3A23.68,23.68,0,0,0,7.7,22.32a21,21,0,0,0-6.56,23.1,23,23,0,0,0,9.1,11.64c1.61,1.08,3.11-1.52,1.51-2.59Z"/><path class="cls-1" d="M45.76,60.61c-8.42,2.17-17-4.06-21.29-10.9A19.47,19.47,0,0,1,23,46.85c-.18-.45-.34-.9-.48-1.36s-.56-1.42-.43-1.81c0,0-1,.19.22-.06l.6-.11a16.59,16.59,0,0,1,1.71-.2,20.61,20.61,0,0,1,3.24,0,18.85,18.85,0,0,1,11.4,5.25,19.29,19.29,0,0,1,5.71,12.48c.09,1.44,2.34,1.45,2.25,0A21.41,21.41,0,0,0,28.44,41.16a17.28,17.28,0,0,0-7.4.45c-2.35.82-.87,4.25-.24,5.83a27.23,27.23,0,0,0,9.7,11.75c4.59,3.23,10.3,5,15.86,3.59a1.13,1.13,0,0,0-.6-2.17Z"/><path class="cls-1" d="M50,59.31c-6.57-5.15-7.09-14.81-4.85-22.26a18.21,18.21,0,0,1,3-6c.1-.13.74-1.09,1-1.1-.38,0,.63.92.73,1a18.85,18.85,0,0,1,2.31,2.73A18.88,18.88,0,0,1,48.87,59c-1.09.95.5,2.54,1.59,1.59A21.26,21.26,0,0,0,52,29.88c-.73-.77-1.73-2-2.85-2.17s-1.89.88-2.53,1.66a17.9,17.9,0,0,0-2.19,3.44,28.11,28.11,0,0,0-2.61,14.34c.42,5.22,2.39,10.44,6.61,13.75,1.13.89,2.73-.69,1.59-1.59Z"/><path class="cls-1" d="M52.61,63.21c9.94,2.55,20.39-5,24.75-13.56a18.7,18.7,0,0,0,1.34-3.33c.29-1,.85-2.52.28-3.49s-1.63-.95-2.49-1.09a20.79,20.79,0,0,0-3.94-.29A21.38,21.38,0,0,0,58.71,46.9a21.62,21.62,0,0,0-6.93,14.61c-.1,1.45,2.15,1.44,2.25,0A19.12,19.12,0,0,1,69.43,44a18.69,18.69,0,0,1,6.46-.11l1.11.21c0,.11-.34,1.15-.41,1.4a16.75,16.75,0,0,1-1.27,3.18,25.87,25.87,0,0,1-8.66,9.43c-4,2.62-8.73,4.12-13.45,2.91a1.13,1.13,0,0,0-.6,2.17Z"/><rect class="cls-2" x="46.35" y="59.02" width="5.87" height="31.56" rx="0.17"/></svg>