<svg id="Layer_1" data-name="Layer 1" xmlns="http://www.w3.org/2000/svg" width="84.07" height="59.07" viewBox="0 0 84.07 59.07"><defs><style>.cls-1{fill:#ba0606;}</style></defs><path class="cls-1" d="M7.91,4.85c2.52-1.46,6.15-1.36,9-1.59C20.42,3,24,2.8,27.5,2.65c4.5-.18,9-.32,13.5-.38,5.93-.07,11.88,0,17.81.16q3.87.09,7.72.26c2.62.12,5.32.12,7.92.44a1.82,1.82,0,0,1,1.74,1.21C76.7,5.61,77,7,77.45,8.27c.85,2.71,1.67,5.42,2.39,8.17s1.33,5.5,1.77,8.3c.35,2.16.29,4.18-1.13,6S76.7,34,74.85,35.4C69.16,39.87,63.5,44.4,57.94,49A58.9,58.9,0,0,1,51.4,54.3,18.2,18.2,0,0,1,41,56.77,12.3,12.3,0,0,1,34.64,55a48.15,48.15,0,0,1-5.13-4.35c-1.29-1.1-2.67-2.11-4-3.15-3.16-2.44-6.33-4.86-9.5-7.29C13.78,38.54,11.63,36.8,9.5,35A62.63,62.63,0,0,1,4,30.41c-2.78-3-1.74-8.36-1-12,.51-2.51,1.15-5,1.87-7.47A21.07,21.07,0,0,1,6.51,6.42a4,4,0,0,1,1.4-1.57C9.53,3.81,8,1.21,6.4,2.26,4.05,3.76,3.1,6.41,2.3,9a57.38,57.38,0,0,0-3,14.7A13.51,13.51,0,0,0,.39,30.52c1,2,2.91,3.37,4.67,4.72C7.34,37,9.42,39,11.69,40.7l6.52,5c2.58,2,5.17,4,7.73,6,2.32,1.82,4.34,4,6.77,5.71,3.61,2.5,8.35,2.8,12.59,2.21a20.6,20.6,0,0,0,10.73-5C61.44,49.91,67,45.44,72.59,41c2.34-1.86,4.82-3.84,7.11-5.59C82.85,33,85.23,30,84.77,25.79a91.72,91.72,0,0,0-4-17c-.42-1.36-.85-2.71-1.28-4.06a7.37,7.37,0,0,0-1.64-3.35C76.19-.11,73.64.07,71.55,0c-9.4-.55-18.83-.73-28.24-.7-3.43,0-6.86.1-10.29.21A214.48,214.48,0,0,0,11.51.81,13.06,13.06,0,0,0,6.4,2.26,1.5,1.5,0,0,0,7.91,4.85Z"/><path class="cls-1" d="M5.3,8.3l56.47-.52,16-.15a1.5,1.5,0,0,0,0-3l-56.47.52L5.3,5.3a1.5,1.5,0,0,0,0,3Z"/><path class="cls-1" d="M2.47,30.05a31.91,31.91,0,0,1,13.05-.56c4.13.71,8.48,2.11,11.72,4.86C33.83,40,34.93,49.18,35.32,57.3c.09,1.93,3.09,1.94,3,0C38,50,37.13,42.36,32.88,36.21s-11.14-9-18.29-9.86a34.93,34.93,0,0,0-12.92.81c-1.87.46-1.07,3.36.8,2.89Z"/><path class="cls-1" d="M49.46,57.34a31.54,31.54,0,0,1,5-16.24A24,24,0,0,1,74.79,30.37a27.09,27.09,0,0,1,7.54,1.06c1.86.54,2.65-2.36.8-2.9a29.37,29.37,0,0,0-19.86,1.22C56.05,33,51,39.36,48.43,46.71a35.06,35.06,0,0,0-2,10.63c-.06,1.93,2.94,1.92,3,0Z"/><path class="cls-1" d="M36,43.56a9.81,9.81,0,0,1,2.5-1.74,10,10,0,0,1,9.64.31,13.2,13.2,0,0,1,1.41.93c-.26-.2.18.16.27.24l.29.26c1.41,1.32,3.53-.8,2.12-2.12a13.71,13.71,0,0,0-8.54-3.69,13.41,13.41,0,0,0-9.81,3.69c-1.4,1.33.72,3.44,2.12,2.12Z"/></svg>